<?xml version="1.0" standalone="no"?>
<!DOCTYPE svg PUBLIC "-//W3C//DTD SVG 20010904//EN"
 "http://www.w3.org/TR/2001/REC-SVG-20010904/DTD/svg10.dtd">
<svg version="1.0" xmlns="http://www.w3.org/2000/svg"
 width="1280.000000pt" height="640.000000pt" viewBox="0 0 1280.000000 640.000000"
 preserveAspectRatio="xMidYMid meet">
<g transform="translate(0.000000,640.000000) scale(0.100000,-0.100000)"
fill="#000000" stroke="none">
<path d="M6441 4901 c-21 -21 -21 -26 -21 -689 0 -506 -3 -671 -12 -680 -22
-22 -50 -13 -166 55 -76 44 -126 67 -147 67 -23 0 -153 -70 -479 -259 -397
-229 -450 -262 -462 -291 -11 -27 -14 -131 -14 -531 0 -454 2 -501 18 -533 15
-30 74 -67 462 -293 392 -227 449 -257 480 -254 45 6 897 496 925 532 20 26
20 42 20 1291 l0 1264 -25 24 c-21 21 -497 294 -543 312 -9 3 -24 -3 -36 -15z
m-211 -2027 c74 -42 147 -85 163 -96 l27 -19 0 -183 c0 -162 -2 -185 -17 -198
-24 -21 -297 -178 -310 -178 -16 0 -307 170 -320 187 -15 19 -18 349 -4 371 7
12 308 191 321 192 3 0 66 -34 140 -76z"/>
<path d="M11114 3658 c-215 -117 -792 -458 -815 -481 -16 -15 -33 -45 -39 -65
-13 -49 -14 -974 0 -1021 5 -19 22 -48 37 -64 43 -44 279 -174 350 -192 134
-34 258 22 294 133 13 39 26 962 14 1009 -5 21 -11 23 -64 23 -44 0 -60 -4
-65 -16 -3 -9 -6 -224 -6 -479 0 -329 -3 -471 -12 -489 -22 -50 -92 -72 -159
-51 -28 9 -226 121 -251 143 -17 14 -18 50 -18 491 0 262 4 481 8 487 11 17
814 478 832 478 18 0 821 -461 832 -478 4 -6 8 -225 8 -487 0 -441 -1 -477
-17 -491 -36 -31 -805 -468 -823 -468 -11 0 -65 27 -121 60 -55 33 -104 60
-107 60 -12 0 -132 -54 -132 -60 0 -5 109 -72 240 -147 83 -48 137 -55 193
-27 120 61 818 472 845 497 18 17 37 47 42 67 14 48 13 973 0 1022 -6 20 -23
50 -39 65 -15 15 -214 136 -442 267 -381 221 -418 240 -469 244 -48 3 -63 -1
-116 -30z"/>
<path d="M485 3426 c-328 -189 -446 -263 -462 -287 l-23 -32 0 -672 c0 -638 1
-673 18 -688 10 -10 27 -17 38 -17 21 0 518 282 549 311 19 19 20 36 25 373
l5 354 24 26 c13 13 76 55 140 93 156 91 166 91 322 0 64 -38 127 -80 140 -93
l24 -26 5 -354 c5 -337 6 -354 25 -373 33 -31 527 -311 550 -311 12 0 26 5 33
12 18 18 17 1363 -1 1398 -19 37 -877 531 -932 536 -37 4 -74 -15 -480 -250z"/>
<path d="M3060 3420 c-239 -138 -445 -262 -457 -276 l-23 -25 0 -530 0 -530
23 -22 c42 -42 894 -527 925 -527 19 0 104 43 243 123 118 68 311 179 429 246
118 68 230 139 248 157 l33 34 -3 530 c-3 514 -4 530 -23 549 -11 11 -216 132
-456 270 -340 196 -443 251 -470 251 -27 0 -130 -55 -469 -250z"/>
<path d="M8580 3642 c-30 -17 -233 -133 -450 -259 -344 -199 -397 -233 -412
-263 -16 -32 -18 -79 -18 -533 0 -400 3 -504 14 -531 12 -29 63 -61 457 -286
315 -180 453 -253 475 -254 36 0 560 287 578 317 7 11 8 22 1 33 -6 8 -199
124 -430 257 -232 133 -433 250 -448 260 l-27 17 0 184 c0 171 1 184 20 201
41 38 295 176 314 171 35 -9 305 -169 312 -185 4 -9 10 -81 13 -161 l6 -145
25 -3 c17 -2 106 44 285 148 143 83 269 160 280 171 18 18 20 35 23 173 l3
154 -28 31 c-35 37 -867 521 -908 528 -21 3 -46 -4 -85 -25z"/>
<path d="M12480 3666 c0 -2 6 -9 14 -15 10 -9 15 -8 20 4 4 10 -1 15 -14 15
-11 0 -20 -2 -20 -4z"/>
<path d="M12620 3650 c0 -11 7 -20 15 -20 17 0 18 2 9 24 -9 23 -24 20 -24 -4z"/>
<path d="M12764 3659 c-3 -6 -1 -16 5 -22 6 -6 11 -42 11 -79 0 -39 4 -68 10
-68 6 0 10 37 10 90 0 72 -3 90 -14 90 -8 0 -18 -5 -22 -11z"/>
<path d="M12695 3500 c3 -5 8 -10 11 -10 2 0 4 5 4 10 0 6 -5 10 -11 10 -5 0
-7 -4 -4 -10z"/>
<path d="M11348 3020 c-125 -15 -231 -84 -256 -167 -29 -98 -1 -195 73 -245
49 -34 122 -53 280 -73 158 -21 231 -41 255 -73 48 -60 3 -147 -87 -173 -29
-8 -91 -13 -154 -13 -171 2 -243 38 -269 135 l-11 40 -62 -3 c-49 -2 -62 -6
-65 -20 -6 -33 28 -128 59 -163 133 -151 567 -153 694 -3 16 18 34 47 42 65
19 46 16 140 -6 189 -36 79 -109 110 -358 149 -238 38 -274 58 -259 139 13 66
77 95 212 96 154 0 224 -34 254 -125 l12 -35 65 0 65 0 -7 43 c-17 101 -74
174 -162 207 -45 17 -205 43 -238 39 -5 -1 -40 -5 -77 -9z"/>
<path d="M8562 2743 l-83 -47 3 -105 3 -105 83 -49 83 -48 80 46 c44 26 84 55
89 65 15 27 13 173 -2 192 -13 15 -154 98 -166 98 -4 0 -44 -21 -90 -47z"/>
</g>
</svg>
